0
SECTION
2
HEADER
9
$INSUNITS
70
5
9
$ACADVER
1
AC1014
9
$HANDSEED
5
FFFF
0
ENDSEC
0
SECTION
2
TABLES
0
TABLE
2
VPORT
5
8
100
AcDbSymbolTable
0
ENDTAB
0
TABLE
2
LTYPE
5
5
100
AcDbSymbolTable
0
LTYPE
5
14
100
AcDbSymbolTableRecord
100
AcDbLinetypeTableRecord
2
BYBLOCK
70
0
0
LTYPE
5
15
100
AcDbSymbolTableRecord
100
AcDbLinetypeTableRecord
2
BYLAYER
70
0
0
ENDTAB
0
TABLE
2
LAYER
5
2
100
AcDbSymbolTable
70
2
0
LAYER
5
50
100
AcDbSymbolTableRecord
100
AcDbLayerTableRecord
2
0
70
0
6
CONTINUOUS
0
ENDTAB
0
TABLE
2
STYLE
5
3
100
AcDbSymbolTable
70
1
0
STYLE
5
11
100
AcDbSymbolTableRecord
100
AcDbTextStyleTableRecord
2
STANDARD
70
0
0
ENDTAB
0
TABLE
2
VIEW
5
6
100
AcDbSymbolTable
70
0
0
ENDTAB
0
TABLE
2
UCS
5
7
100
AcDbSymbolTable
70
0
0
ENDTAB
0
TABLE
2
APPID
5
9
100
AcDbSymbolTable
70
2
0
APPID
5
12
100
AcDbSymbolTableRecord
100
AcDbRegAppTableRecord
2
ACAD
70
0
0
ENDTAB
0
TABLE
2
DIMSTYLE
5
A
100
AcDbSymbolTable
70
1
0
ENDTAB
0
TABLE
2
BLOCK_RECORD
5
1
100
AcDbSymbolTable
70
1
0
BLOCK_RECORD
5
1F
100
AcDbSymbolTableRecord
100
AcDbBlockTableRecord
2
*MODEL_SPACE
0
BLOCK_RECORD
5
1B
100
AcDbSymbolTableRecord
100
AcDbBlockTableRecord
2
*PAPER_SPACE
0
ENDTAB
0
ENDSEC
0
SECTION
2
BLOCKS
0
BLOCK
5
20
100
AcDbEntity
100
AcDbBlockBegin
2
*MODEL_SPACE
0
ENDBLK
5
21
100
AcDbEntity
100
AcDbBlockEnd
0
BLOCK
5
1C
100
AcDbEntity
100
AcDbBlockBegin
2
*PAPER_SPACE
0
ENDBLK
5
1D
100
AcDbEntity
100
AcDbBlockEnd
0
ENDSEC
0
SECTION
2
ENTITIES
0
LWPOLYLINE
5
100
100
AcDbEntity
8
0
100
AcDbPolyline
90
60
70
1
43
0.0
10
0.64604842323202982
20
-5.7000000000000002
10
0.29209684646405965
20
-5.7000000000000002
10
0.29209684646405965
20
-4.9999999895691865
10
0.49999999254941985
20
-4.9999999895691865
10
0.49999999254941985
20
-4.4999999821186059
10
0.29209684646405965
20
-4.4999999821186059
10
0.29209684646405965
20
-3.9999999746680261
10
-0.30000001937150911
20
-3.9999999746680261
10
-0.30000001937150911
20
-4.4999999821186059
10
-0.50000002235174135
20
-4.4999999821186059
10
-0.50000002235174135
20
-4.9999999895691865
10
-0.30000001937150911
20
-4.9999999895691865
10
-0.30000001937150911
20
-5.7000000000000002
10
-1.7000000253319734
20
-5.7000000000000002
10
-1.7000000253319734
20
-4.9999999895691873
10
-1.5000000223517413
20
-4.9999999895691873
10
-1.5000000223517413
20
-4.4999999821186067
10
-1.7000000253319734
20
-4.4999999821186067
10
-1.7000000253319734
20
-3.9999999746680261
10
-2.2920968911675423
20
-3.9999999746680261
10
-2.2920968911675423
20
-4.4999999821186067
10
-2.5000000372529025
20
-4.4999999821186067
10
-2.5000000372529025
20
-4.9999999895691873
10
-2.2920968911675423
20
-4.9999999895691873
10
-2.2920968911675423
20
-5.7000000000000002
10
-2.646048467935513
20
-5.7000000000000002
10
-2.646048467935513
20
-6
10
-3.0000000447034836
20
-6
10
-3.0000000447034836
20
0.30000000000000004
10
-2.646048467935513
20
0.30000000000000004
10
-2.646048467935513
20
0
10
-2.2920968911675423
20
0
10
-2.2920968911675423
20
-0.70000001043081284
10
-2.500000037252903
20
-0.70000001043081284
10
-2.500000037252903
20
-1.2000000178813934
10
-2.2920968911675423
20
-1.2000000178813934
10
-2.2920968911675423
20
-1.7000000253319738
10
-1.700000025331974
20
-1.700000025331974
10
-1.700000025331974
20
-1.2000000178813934
10
-1.5000000223517418
20
-1.2000000178813934
10
-1.5000000223517418
20
-0.70000001043081284
10
-1.700000025331974
20
-0.70000001043081284
10
-1.700000025331974
20
0
10
-0.30000001937150955
20
0
10
-0.30000001937150955
20
-0.70000001043081284
10
-0.50000002235174179
20
-0.70000001043081284
10
-0.50000002235174179
20
-1.2000000178813934
10
-0.30000001937150955
20
-1.2000000178813934
10
-0.30000001937150955
20
-1.7000000253319738
10
0.29209684646405876
20
-1.7000000253319738
10
0.29209684646405876
20
-1.2000000178813934
10
0.4999999925494194
20
-1.2000000178813934
10
0.4999999925494194
20
-0.70000001043081284
10
0.29209684646405876
20
-0.70000001043081284
10
0.29209684646405926
20
0
10
0.64604842323202938
20
0
10
0.64604842323202938
20
0.29999999999999993
10
1
20
0.29999999999999982
10
1
20
-6
10
0.64604842323202982
20
-6
0
ENDSEC
0
SECTION
2
OBJECTS
0
DICTIONARY
5
C
100
AcDbDictionary
3
ACAD_GROUP
350
D
3
ACAD_MLINESTYLE
350
17
0
DICTIONARY
5
D
100
AcDbDictionary
0
DICTIONARY
5
1A
330
C
100
AcDbDictionary
0
DICTIONARY
5
17
100
AcDbDictionary
0
ENDSEC
0
EOF
